<svg xmlns="http://www.w3.org/2000/svg" viewBox="0 0 980 600" font-family="Segoe UI, system-ui, sans-serif">
  <!-- janela -->
  <rect width="980" height="600" rx="10" fill="#1b1f24"/>

  <!-- header -->
  <text x="32" y="48" fill="#e6e9ee" font-size="24" font-weight="700">Web Process Manager</text>
  <text x="32" y="72" fill="#99a2ad" font-size="14">1 rodando / 2 servidor(es) conhecido(s)</text>

  <!-- controls -->
  <rect x="612" y="34" width="18" height="18" rx="4" fill="#2c333c" stroke="#3a424d"/>
  <text x="638" y="48" fill="#99a2ad" font-size="13">Mostrar todos os processos</text>
  <rect x="828" y="30" width="120" height="34" rx="6" fill="#3b82f6"/>
  <text x="888" y="52" fill="#ffffff" font-size="13" font-weight="600" text-anchor="middle">Atualizar</text>

  <!-- ===== card 1: rodando ===== -->
  <g transform="translate(32,104)">
    <rect width="440" height="218" rx="10" fill="#242a31" stroke="#3a424d"/>
    <text x="18" y="34" fill="#e6e9ee" font-size="16" font-weight="600">loja-api</text>
    <rect x="340" y="18" width="84" height="22" rx="11" fill="#1f7a47"/>
    <text x="382" y="33" fill="#d6ffe6" font-size="11" font-weight="700" text-anchor="middle">RODANDO</text>

    <text x="18" y="64" fill="#3b82f6" font-size="13">http://localhost:8000</text>

    <text x="18" y="92" fill="#99a2ad" font-size="11">Processo: python.exe</text>
    <text x="170" y="92" fill="#99a2ad" font-size="11">PID: 1848</text>
    <text x="270" y="92" fill="#99a2ad" font-size="11">Visto: agora</text>

    <rect x="18" y="106" width="404" height="34" rx="6" fill="#2c333c" stroke="#3a424d"/>
    <text x="28" y="128" fill="#c8d0da" font-size="11" font-family="Consolas, monospace">"...\loja-api\venv\Scripts\python.exe" -m uvicorn app.main:app --reload</text>

    <rect x="18" y="160" width="80" height="36" rx="6" fill="#e74c3c"/>
    <text x="58" y="183" fill="#fff" font-size="13" font-weight="600" text-anchor="middle">Stop</text>
    <rect x="106" y="160" width="80" height="36" rx="6" fill="#2c333c" stroke="#3a424d"/>
    <text x="146" y="183" fill="#e6e9ee" font-size="13" font-weight="600" text-anchor="middle">Editar</text>
    <rect x="330" y="160" width="92" height="36" rx="6" fill="#2c333c" stroke="#3a424d"/>
    <text x="376" y="183" fill="#99a2ad" font-size="13" font-weight="600" text-anchor="middle">Remover</text>
  </g>

  <!-- ===== card 2: parado ===== -->
  <g transform="translate(508,104)">
    <rect width="440" height="218" rx="10" fill="#242a31" stroke="#3a424d"/>
    <text x="18" y="34" fill="#e6e9ee" font-size="16" font-weight="600">painel-vendas</text>
    <rect x="346" y="18" width="78" height="22" rx="11" fill="#3a424d"/>
    <text x="385" y="33" fill="#99a2ad" font-size="11" font-weight="700" text-anchor="middle">PARADO</text>

    <text x="18" y="64" fill="#99a2ad" font-size="13">http://localhost:8001</text>

    <text x="18" y="92" fill="#99a2ad" font-size="11">Processo: python.exe</text>
    <text x="170" y="92" fill="#99a2ad" font-size="11">PID: —</text>
    <text x="270" y="92" fill="#99a2ad" font-size="11">Visto: 10:42</text>

    <rect x="18" y="106" width="404" height="34" rx="6" fill="#2c333c" stroke="#3a424d"/>
    <text x="28" y="128" fill="#c8d0da" font-size="11" font-family="Consolas, monospace">"...\painel-vendas\.venv\Scripts\python.exe" -m flask run --port 8001</text>

    <rect x="18" y="160" width="80" height="36" rx="6" fill="#2ecc71"/>
    <text x="58" y="183" fill="#fff" font-size="13" font-weight="600" text-anchor="middle">Start</text>
    <rect x="106" y="160" width="80" height="36" rx="6" fill="#2c333c" stroke="#3a424d"/>
    <text x="146" y="183" fill="#e6e9ee" font-size="13" font-weight="600" text-anchor="middle">Editar</text>
    <rect x="330" y="160" width="92" height="36" rx="6" fill="#2c333c" stroke="#3a424d"/>
    <text x="376" y="183" fill="#99a2ad" font-size="13" font-weight="600" text-anchor="middle">Remover</text>
  </g>

  <!-- rodape -->
  <text x="32" y="360" fill="#6b7280" font-size="12">Detecção automática por porta TCP · Start/Stop por PID · zero cadastro manual de URL</text>
</svg>
